<?xml version="1.0" encoding="utf-8" standalone="no"?>
<!DOCTYPE svg PUBLIC "-//W3C//DTD SVG 1.1//EN" "http://www.w3.org/Graphics/SVG/1.1/DTD/svg11.dtd">

<svg style="stroke-linejoin:round; stroke:black; stroke-width:0.5pt; text-anchor:middle; fill:none" xmlns="http://www.w3.org/2000/svg" height="297mm" width="210mm" version="1.1" xmlns:xlink="http://www.w3.org/1999/xlink" font-family="Helvetica, Arial, FreeSans, Sans, sans, sans-serif" viewBox="0 0 210 297">

<g>

<circle stroke="none" cx="35.0" r="10.0" cy="48.5" fill="black" />

<circle stroke="none" cx="55.0" r="10.0" cy="68.5" fill="black" />

<circle stroke="none" cx="35.0" r="10.0" cy="88.5" fill="black" />

<circle stroke="none" cx="55.0" r="10.0" cy="108.5" fill="black" />

<circle stroke="none" cx="35.0" r="10.0" cy="128.5" fill="black" />

<circle stroke="none" cx="55.0" r="10.0" cy="148.5" fill="black" />

<circle stroke="none" cx="35.0" r="10.0" cy="168.5" fill="black" />

<circle stroke="none" cx="55.0" r="10.0" cy="188.5" fill="black" />

<circle stroke="none" cx="35.0" r="10.0" cy="208.5" fill="black" />

<circle stroke="none" cx="55.0" r="10.0" cy="228.5" fill="black" />

<circle stroke="none" cx="35.0" r="10.0" cy="248.5" fill="black" />

<circle stroke="none" cx="75.0" r="10.0" cy="48.5" fill="black" />

<circle stroke="none" cx="95.0" r="10.0" cy="68.5" fill="black" />

<circle stroke="none" cx="75.0" r="10.0" cy="88.5" fill="black" />

<circle stroke="none" cx="95.0" r="10.0" cy="108.5" fill="black" />

<circle stroke="none" cx="75.0" r="10.0" cy="128.5" fill="black" />

<circle stroke="none" cx="95.0" r="10.0" cy="148.5" fill="black" />

<circle stroke="none" cx="75.0" r="10.0" cy="168.5" fill="black" />

<circle stroke="none" cx="95.0" r="10.0" cy="188.5" fill="black" />

<circle stroke="none" cx="75.0" r="10.0" cy="208.5" fill="black" />

<circle stroke="none" cx="95.0" r="10.0" cy="228.5" fill="black" />

<circle stroke="none" cx="75.0" r="10.0" cy="248.5" fill="black" />

<circle stroke="none" cx="115.0" r="10.0" cy="48.5" fill="black" />

<circle stroke="none" cx="135.0" r="10.0" cy="68.5" fill="black" />

<circle stroke="none" cx="115.0" r="10.0" cy="88.5" fill="black" />

<circle stroke="none" cx="135.0" r="10.0" cy="108.5" fill="black" />

<circle stroke="none" cx="115.0" r="10.0" cy="128.5" fill="black" />

<circle stroke="none" cx="135.0" r="10.0" cy="148.5" fill="black" />

<circle stroke="none" cx="115.0" r="10.0" cy="168.5" fill="black" />

<circle stroke="none" cx="135.0" r="10.0" cy="188.5" fill="black" />

<circle stroke="none" cx="115.0" r="10.0" cy="208.5" fill="black" />

<circle stroke="none" cx="135.0" r="10.0" cy="228.5" fill="black" />

<circle stroke="none" cx="115.0" r="10.0" cy="248.5" fill="black" />

<circle stroke="none" cx="155.0" r="10.0" cy="48.5" fill="black" />

<circle stroke="none" cx="175.0" r="10.0" cy="68.5" fill="black" />

<circle stroke="none" cx="155.0" r="10.0" cy="88.5" fill="black" />

<circle stroke="none" cx="175.0" r="10.0" cy="108.5" fill="black" />

<circle stroke="none" cx="155.0" r="10.0" cy="128.5" fill="black" />

<circle stroke="none" cx="175.0" r="10.0" cy="148.5" fill="black" />

<circle stroke="none" cx="155.0" r="10.0" cy="168.5" fill="black" />

<circle stroke="none" cx="175.0" r="10.0" cy="188.5" fill="black" />

<circle stroke="none" cx="155.0" r="10.0" cy="208.5" fill="black" />

<circle stroke="none" cx="175.0" r="10.0" cy="228.5" fill="black" />

<circle stroke="none" cx="155.0" r="10.0" cy="248.5" fill="black" />

</g>

</svg>

